<?xml version="1.0"?>
<svg xmlns="http://www.w3.org/2000/svg" width="31" height="32" fill="none">
  <path fill-rule="evenodd" clip-rule="evenodd" d="M15.195 31.195c8.392 0 15.195-6.803 15.195-15.195S23.587.805 15.195.805 0 7.608 0 16s6.803 15.195 15.195 15.195Zm3.89-6.747c3.716-1.755 4.881-4.996 5.143-6.259-1.358 1.392-2.861 2.802-3.872 1.826 0 0-.056-5.21-.056-7.347 0-2.873 2.725-5.014 2.725-5.014-1.498.267-3.298.8-5.207 2.675-.173.17-.336.35-.49.538-.818-.627-1.879-.439-1.879-.439.573.315 1.145 1.232 1.145 1.991v7.461s-1.25 1.1-2.212 1.1a1.361 1.361 0 0 1-1.113-.564c-.077-.1-.14-.209-.188-.324v-9.218c-.285.234-1.247.428-1.247-1.17 0-.991.715-2.174 1.988-2.9a9.38 9.38 0 0 0-4.723 2.18 9.248 9.248 0 0 0-3.2 7.087s.93-2.909 2.096-3.178a1.127 1.127 0 0 1 1.414 1.128v6.83c0 .692-.446.843-.858.836a3.624 3.624 0 0 1-.823-.155 9.29 9.29 0 0 0 7.348 3.769l2.518-2.53 1.492 1.677Z" fill="#fff"/>
</svg>
